<?xml version="1.0" encoding="utf-8"?>
<!-- Generator: Adobe Illustrator 24.1.2, SVG Export Plug-In . SVG Version: 6.00 Build 0)  -->
<svg version="1.1" id="Layer_1" xmlns="http://www.w3.org/2000/svg" xmlns:xlink="http://www.w3.org/1999/xlink" x="0px" y="0px"
	 viewBox="0 0 152.1 16.82" style="enable-background:new 0 0 152.1 16.82;" xml:space="preserve">
<style type="text/css">
	.st0{fill:#000;}
</style>
<g>
	<path class="st0" d="M2.13,14.54C0.71,13.03,0,10.99,0,8.41c0-2.56,0.7-4.61,2.1-6.13C3.5,0.76,5.34,0,7.6,0
		c1.78,0,3.31,0.48,4.59,1.42c1.28,0.96,2.1,2.39,2.46,4.27h-2.44c-0.3-1.18-0.86-2.06-1.66-2.66S8.76,2.15,7.6,2.15
		c-1.55,0-2.79,0.56-3.71,1.68S2.51,6.48,2.51,8.41s0.46,3.46,1.38,4.58c0.92,1.12,2.16,1.68,3.71,1.68c1.16,0,2.2-0.35,3.12-1.06
		c0.89-0.71,1.42-1.74,1.61-3.1h2.42c-0.2,2-0.97,3.56-2.33,4.66c-1.34,1.1-2.95,1.65-4.82,1.65C5.35,16.82,3.53,16.06,2.13,14.54z"
		/>
	<path class="st0" d="M24.2,4.79h2.26v11.67h-2.17v-1.74c-0.89,1.34-2.11,2.01-3.66,2.01c-1.28,0-2.28-0.36-3.01-1.09
		s-1.08-1.73-1.08-3.03V4.79h2.26v7.51c0,1.63,0.82,2.44,2.46,2.44c0.83,0,1.53-0.3,2.09-0.89c0.57-0.59,0.85-1.42,0.85-2.48V4.79z"
		/>
	<path class="st0" d="M35.48,4.64v2.15h-0.56c-1.16,0-2.06,0.29-2.69,0.86c-0.63,0.57-0.95,1.4-0.95,2.49v6.33h-2.26V4.79h2.17v2.08
		c0.74-1.51,1.95-2.26,3.64-2.26C35.16,4.61,35.38,4.62,35.48,4.64z"/>
	<path class="st0" d="M47.04,11.38h-8.8c0.11,1.15,0.44,2.01,1.02,2.59c0.57,0.58,1.35,0.87,2.33,0.87c1.48,0,2.44-0.65,2.89-1.95
		h2.28c-0.32,1.19-0.93,2.13-1.84,2.82c-0.91,0.69-2.04,1.03-3.38,1.03c-1.67,0-3.02-0.56-4.05-1.67c-1.03-1.12-1.54-2.59-1.54-4.43
		c0-1.84,0.51-3.32,1.54-4.43c1.02-1.12,2.36-1.67,4-1.67c1.72,0,3.08,0.58,4.07,1.74c0.98,1.16,1.47,2.65,1.47,4.45V11.38z
		 M39.32,7.24c-0.57,0.54-0.92,1.33-1.05,2.35h6.44c-0.11-0.95-0.44-1.71-1.01-2.29s-1.3-0.87-2.21-0.87
		C40.61,6.42,39.88,6.69,39.32,7.24z"/>
	<path class="st0" d="M53.59,14.54c-1.42-1.51-2.13-3.55-2.13-6.13c0-2.56,0.7-4.61,2.1-6.13C54.97,0.76,56.8,0,59.06,0
		c1.78,0,3.31,0.48,4.59,1.42c1.28,0.96,2.1,2.39,2.46,4.27h-2.44c-0.3-1.18-0.86-2.06-1.66-2.66s-1.79-0.89-2.95-0.89
		c-1.55,0-2.79,0.56-3.71,1.68s-1.38,2.65-1.38,4.58s0.46,3.46,1.38,4.58c0.92,1.12,2.16,1.68,3.71,1.68c1.16,0,2.2-0.35,3.12-1.06
		c0.89-0.71,1.42-1.74,1.61-3.1h2.42c-0.2,2-0.97,3.56-2.33,4.66c-1.34,1.1-2.95,1.65-4.82,1.65
		C56.81,16.82,54.99,16.06,53.59,14.54z"/>
	<path class="st0" d="M73.35,16.73c-1.72,0-3.11-0.56-4.18-1.67c-1.07-1.12-1.61-2.59-1.61-4.43c0-1.85,0.54-3.34,1.61-4.46
		c1.06-1.1,2.45-1.65,4.18-1.65s3.13,0.55,4.18,1.65s1.58,2.58,1.58,4.46c0,1.85-0.53,3.33-1.58,4.43
		C76.47,16.18,75.07,16.73,73.35,16.73z M75.85,13.68c0.61-0.74,0.92-1.76,0.92-3.05c0-1.3-0.31-2.31-0.92-3.05
		c-0.61-0.74-1.44-1.11-2.5-1.11s-1.89,0.37-2.51,1.11c-0.62,0.74-0.93,1.76-0.93,3.05c0,1.3,0.31,2.31,0.93,3.05
		c0.62,0.74,1.45,1.11,2.51,1.11S75.24,14.42,75.85,13.68z"/>
	<path class="st0" d="M81.11,16.46V0.36h2.26v16.1H81.11z"/>
	<path class="st0" d="M85.91,16.46V0.36h2.26v16.1H85.91z"/>
	<path class="st0" d="M101.24,11.38h-8.8c0.11,1.15,0.44,2.01,1.02,2.59c0.57,0.58,1.35,0.87,2.33,0.87c1.48,0,2.44-0.65,2.89-1.95
		h2.28c-0.32,1.19-0.93,2.13-1.84,2.82c-0.91,0.69-2.04,1.03-3.38,1.03c-1.67,0-3.02-0.56-4.05-1.67c-1.03-1.12-1.54-2.59-1.54-4.43
		c0-1.84,0.51-3.32,1.54-4.43c1.02-1.12,2.36-1.67,4-1.67c1.72,0,3.08,0.58,4.07,1.74c0.98,1.16,1.47,2.65,1.47,4.45V11.38z
		 M93.52,7.24c-0.57,0.54-0.92,1.33-1.05,2.35h6.44c-0.11-0.95-0.44-1.71-1.01-2.29s-1.3-0.87-2.21-0.87
		C94.81,6.42,94.08,6.69,93.52,7.24z"/>
	<path class="st0" d="M104.25,15.06c-1.03-1.12-1.54-2.59-1.54-4.43c0-1.85,0.51-3.34,1.54-4.46c1.01-1.1,2.35-1.65,4.02-1.65
		c1.43,0,2.61,0.39,3.54,1.18c0.93,0.78,1.48,1.84,1.66,3.17h-2.31c-0.15-0.77-0.49-1.36-1.01-1.76s-1.15-0.61-1.89-0.61
		c-0.98,0-1.76,0.36-2.34,1.07c-0.58,0.72-0.87,1.74-0.87,3.06c0,1.33,0.29,2.35,0.87,3.06c0.58,0.72,1.36,1.07,2.34,1.07
		c0.75,0,1.39-0.21,1.92-0.63c0.53-0.42,0.86-1.03,1-1.83h2.31c-0.18,1.36-0.75,2.43-1.7,3.23c-0.95,0.8-2.13,1.2-3.53,1.2
		C106.62,16.73,105.27,16.18,104.25,15.06z"/>
	<path class="st0" d="M120.42,6.65h-2.35v7.01c0,0.35,0.1,0.6,0.3,0.76c0.2,0.16,0.55,0.24,1.03,0.24h1.02v1.81
		c-0.5,0.04-0.96,0.07-1.38,0.07c-1.1,0-1.91-0.21-2.44-0.63c-0.53-0.42-0.79-1.1-0.79-2.04V6.65h-1.88V4.79h1.88V1.45h2.26v3.35
		h2.35V6.65z"/>
	<path class="st0" d="M122.21,1.99V1.88c0-0.64,0.52-1.15,1.15-1.15h0c0.64,0,1.15,0.52,1.15,1.15v0.11c0,0.64-0.52,1.15-1.15,1.15
		h0C122.72,3.14,122.21,2.63,122.21,1.99z M122.23,16.46V4.79h2.26v11.67H122.23z"/>
	<path class="st0" d="M134.78,4.79h2.4l-4.48,11.67h-2.51l-4.45-11.67h2.44l1.58,4.27c1.07,3.18,1.64,4.92,1.72,5.2
		c0.05-0.15,0.14-0.45,0.29-0.9c0.15-0.45,0.36-1.07,0.63-1.87c0.27-0.79,0.54-1.6,0.81-2.43L134.78,4.79z"/>
	<path class="st0" d="M148.44,11.38h-8.8c0.11,1.15,0.44,2.01,1.02,2.59c0.57,0.58,1.35,0.87,2.33,0.87c1.48,0,2.44-0.65,2.89-1.95
		h2.28c-0.32,1.19-0.93,2.13-1.84,2.82c-0.91,0.69-2.04,1.03-3.38,1.03c-1.67,0-3.02-0.56-4.05-1.67c-1.03-1.12-1.54-2.59-1.54-4.43
		c0-1.84,0.51-3.32,1.54-4.43c1.02-1.12,2.36-1.67,4-1.67c1.72,0,3.08,0.58,4.07,1.74c0.98,1.16,1.47,2.65,1.47,4.45V11.38z
		 M140.72,7.24c-0.57,0.54-0.92,1.33-1.05,2.35h6.44c-0.11-0.95-0.44-1.71-1.01-2.29s-1.3-0.87-2.21-0.87
		C142.01,6.42,141.28,6.69,140.72,7.24z"/>
	<path class="st0" d="M149.37,15.12L149.37,15.12c0-0.74,0.6-1.35,1.35-1.35h0.04c0.74,0,1.35,0.6,1.35,1.35v0
		c0,0.74-0.6,1.35-1.35,1.35h-0.04C149.97,16.46,149.37,15.86,149.37,15.12z"/>
</g>
</svg>
